2.8Hzhigh3min_grf.mot
version=1
nRows=15
nColumns 19
inDegrees=yes
endheader
time	1_ground_force_vx	1_ground_force_vy	1_ground_force_vz	1_ground_force_px	1_ground_force_py	1_ground_force_pz	1_ground_torque_x	1_ground_torque_y	1_ground_torque_z	2_ground_force_vx	2_ground_force_vy	2_ground_force_vz	2_ground_force_px	2_ground_force_py	2_ground_force_pz	2_ground_torque_x	2_ground_torque_y	2_ground_torque_z
            3.751500	            0.461714	            0.715253	            1.377631	           -0.233013	            0.005581	           -0.255695	           -0.247113	           -0.294932	           -0.131514	            0.470123	           -0.547741	           -0.846876	           -0.232311	            0.006130	           -0.833667	           -0.168599	           -0.132881	           -0.019250
            3.752000	            0.048555	            1.977623	            1.246498	           -0.233013	            0.005581	           -0.255695	           -0.129571	           -0.248725	           -0.186842	            0.282744	           -0.548585	           -0.799868	           -0.232311	            0.006130	           -0.833667	           -0.187443	           -0.123294	           -0.075759
            3.752500	            0.094724	            1.436442	            1.335778	           -0.233013	            0.005581	           -0.255695	           -0.189301	           -0.017950	           -0.108537	            0.425931	           -1.284503	           -0.849485	           -0.232311	            0.006130	           -0.833667	           -0.244081	           -0.038625	           -0.018881
            3.753000	            0.368841	            0.356867	            0.871898	           -0.233013	            0.005581	           -0.255695	           -0.244161	            0.250208	           -0.095485	            0.233174	            0.188342	           -0.938005	           -0.232311	            0.006130	           -0.833667	           -0.150256	           -0.019112	           -0.094255
            3.753500	            0.460249	            1.258409	            0.829679	           -0.233013	            0.005581	           -0.255695	           -0.186689	            0.232176	           -0.185818	            0.142153	           -0.548757	           -0.893665	           -0.232311	            0.006130	           -0.833667	           -0.112754	            0.009113	           -0.018769
            3.754000	            0.414358	            0.898066	            0.782391	           -0.233013	            0.005581	           -0.255695	           -0.259557	            0.019541	           -0.188490	            0.375676	           -0.363261	           -1.033892	           -0.232311	            0.006130	           -0.833667	           -0.300284	           -0.076774	            0.018708
            3.754500	            0.415107	            0.536355	            1.055981	           -0.233013	            0.005581	           -0.255695	           -0.177244	           -0.229844	           -0.227347	            0.562473	           -0.178938	           -0.892530	           -0.232311	            0.006130	           -0.833667	           -0.187639	           -0.066645	           -0.056707
            3.755000	           -0.180187	            1.255926	            1.381543	           -0.233013	            0.005581	           -0.255695	           -0.266287	           -0.369178	           -0.159170	            0.515684	           -0.179610	           -0.751726	           -0.232311	            0.006130	           -0.833667	           -0.281370	           -0.123634	           -0.075719
            3.755500	            0.094970	            0.715182	            1.378542	           -0.233013	            0.005581	           -0.255695	           -0.247299	           -0.257885	           -0.203387	            0.516390	           -0.364093	           -0.658527	           -0.232311	            0.006130	           -0.833667	           -0.168667	           -0.113976	           -0.019183
            3.756000	            0.232041	            1.977462	            1.291899	           -0.233013	            0.005581	           -0.255695	           -0.187886	            0.093355	           -0.177411	            0.514958	            0.005041	           -0.891853	           -0.232311	            0.006130	           -0.833667	           -0.319282	           -0.029242	           -0.075366
            3.756500	            0.507020	            0.535979	            1.147465	           -0.233013	            0.005581	           -0.255695	           -0.105816	            0.241064	           -0.090010	            0.514252	            0.189524	           -0.985052	           -0.232311	            0.006130	           -0.833667	           -0.188048	            0.037603	           -0.131737
            3.757000	            0.231426	            0.356644	            0.918095	           -0.233013	            0.005581	           -0.255695	           -0.133860	            0.186109	           -0.252282	            0.282682	           -0.548083	           -0.940653	           -0.232311	            0.006130	           -0.833667	           -0.300668	            0.027273	            0.000229
            3.757500	            0.414780	            1.077545	            0.966588	           -0.233013	            0.005581	           -0.255695	           -0.211211	           -0.054310	           -0.207732	            0.282682	           -0.548083	           -0.940653	           -0.232311	            0.006130	           -0.833667	           -0.187683	           -0.047942	           -0.000089
            3.758000	            0.553513	            0.715074	            1.423260	           -0.233013	            0.005581	           -0.255695	           -0.117886	           -0.303704	           -0.221954	            0.280709	            0.004195	           -0.891754	           -0.232311	            0.006130	           -0.833667	           -0.150146	           -0.038353	           -0.000071
            3.758500	            0.186281	            0.896055	            1.241519	           -0.233013	            0.005581	           -0.255695	           -0.147472	           -0.369072	           -0.125016	            0.472096	           -1.100018	           -0.895776	           -0.232311	            0.006130	           -0.833667	           -0.225082	           -0.104525	           -0.075676
